<?xml version="1.0" encoding="utf-8"?>
<!-- Generator: Adobe Illustrator 25.2.2, SVG Export Plug-In . SVG Version: 6.00 Build 0)  -->
<svg version="1.1" id="Capa_1" xmlns="http://www.w3.org/2000/svg" xmlns:xlink="http://www.w3.org/1999/xlink" x="0px" y="0px"
	 viewBox="0 0 102 34" style="enable-background:new 0 0 102 34;" xml:space="preserve">
<style type="text/css">
	.st0{fill:#139AD6;}
	.st1{fill:#263B80;}
</style>
<g>
	<path class="st0" d="M68.9,3.2h-7.9c-0.5,0-0.9,0.5-1.2,0.9l-3.2,20.4c0,0.5,0.2,0.7,0.7,0.7h4.2c0.5,0,0.7-0.2,0.7-0.7l0.9-5.8
		c0-0.5,0.5-0.9,1.2-0.9h2.5c5.3,0,8.3-2.5,9-7.6c0.5-2.1,0-3.9-0.9-5.1C73.6,3.9,71.5,3.2,68.9,3.2 M69.9,10.9
		c-0.5,2.8-2.5,2.8-4.6,2.8h-1.4l0.9-5.3c0-0.2,0.2-0.5,0.7-0.5h0.5c1.4,0,2.8,0,3.5,0.9C69.9,9,69.9,9.7,69.9,10.9"/>
	<g>
		<path class="st1" d="M12.3,3.2H4.4c-0.5,0-0.9,0.5-1.2,0.9L0,24.5c0,0.5,0.2,0.7,0.7,0.7h3.7c0.5,0,0.9-0.5,1.2-0.9l0.9-5.6
			c0-0.5,0.5-0.9,1.2-0.9h2.5c5.3,0,8.3-2.5,9-7.6c0.5-2.1,0-3.9-0.9-5.1C16.9,3.9,15,3.2,12.3,3.2 M13.2,10.9
			c-0.5,2.8-2.5,2.8-4.6,2.8H7.4l0.9-5.3c0-0.2,0.2-0.5,0.7-0.5h0.5c1.4,0,2.8,0,3.5,0.9C13.2,9,13.4,9.7,13.2,10.9"/>
		<path class="st1" d="M36.1,10.6h-3.7c-0.2,0-0.7,0.2-0.7,0.5l-0.2,1.2l-0.2-0.5c-0.9-1.2-2.5-1.6-4.4-1.6c-4.2,0-7.9,3.2-8.6,7.6
			c-0.5,2.3,0.2,4.4,1.4,5.8c1.2,1.4,2.8,1.9,4.9,1.9c3.5,0,5.3-2.1,5.3-2.1l-0.2,1.2c0,0.5,0.2,0.7,0.7,0.7h3.5
			c0.5,0,0.9-0.5,1.2-0.9l2.1-13C36.8,11.1,36.3,10.6,36.1,10.6 M30.8,18c-0.5,2.1-2.1,3.7-4.4,3.7c-1.2,0-2.1-0.5-2.5-0.9
			c-0.5-0.7-0.7-1.6-0.7-2.8c0.2-2.1,2.1-3.7,4.2-3.7c1.2,0,1.9,0.5,2.5,0.9C30.5,16,30.8,17.1,30.8,18"/>
	</g>
	<path class="st0" d="M92.5,10.6h-3.7c-0.2,0-0.7,0.2-0.7,0.5l-0.2,1.2l-0.2-0.5c-0.9-1.2-2.5-1.6-4.4-1.6c-4.2,0-7.9,3.2-8.6,7.6
		c-0.5,2.3,0.2,4.4,1.4,5.8c1.2,1.4,2.8,1.9,4.9,1.9c3.5,0,5.3-2.1,5.3-2.1L86,24.5c0,0.5,0.2,0.7,0.7,0.7h3.5
		c0.5,0,0.9-0.5,1.2-0.9l2.1-13C93.2,11.1,93,10.6,92.5,10.6 M87.2,18c-0.5,2.1-2.1,3.7-4.4,3.7c-1.2,0-2.1-0.5-2.5-0.9
		c-0.5-0.7-0.7-1.6-0.7-2.8c0.2-2.1,2.1-3.7,4.2-3.7c1.2,0,1.9,0.5,2.5,0.9C87.2,16,87.4,17.1,87.2,18"/>
	<path class="st1" d="M56.2,10.6h-3.9c-0.5,0-0.7,0.2-0.9,0.5L46.3,19l-2.3-7.4c-0.2-0.5-0.5-0.7-1.2-0.7h-3.7
		c-0.5,0-0.7,0.5-0.7,0.9l4.2,12.3l-3.9,5.6c-0.2,0.5,0,1.2,0.5,1.2h3.7c0.5,0,0.7-0.2,0.9-0.5L56.4,12
		C57.1,11.3,56.7,10.6,56.2,10.6"/>
	<path class="st0" d="M96.9,3.9l-3.2,20.8c0,0.5,0.2,0.7,0.7,0.7h3.2c0.5,0,0.9-0.5,1.2-0.9L102,4.2c0-0.5-0.2-0.7-0.7-0.7h-3.7
		C97.4,3.2,97.1,3.5,96.9,3.9"/>
</g>
</svg>
